<svg width="48" height="55" viewBox="0 0 48 55" fill="none" xmlns="http://www.w3.org/2000/svg">
<path d="M5.25 0C3.85761 0 2.52226 0.563367 1.53769 1.56617C0.553123 2.56896 0 3.92905 0 5.34722V49.6528C0 52.6044 2.352 55 5.25 55H15.75C17.1424 55 18.4777 54.4366 19.4623 53.4338C20.4469 52.431 21 51.0709 21 49.6528V5.34722C21 3.92905 20.4469 2.56896 19.4623 1.56617C18.4777 0.563367 17.1424 0 15.75 0H5.25ZM4.5 5.34722C4.5 5.14463 4.57902 4.95033 4.71967 4.80707C4.86032 4.66381 5.05109 4.58333 5.25 4.58333H15.75C15.9489 4.58333 16.1397 4.66381 16.2803 4.80707C16.421 4.95033 16.5 5.14463 16.5 5.34722V49.6528C16.5 49.8554 16.421 50.0497 16.2803 50.1929C16.1397 50.3362 15.9489 50.4167 15.75 50.4167H5.25C5.05109 50.4167 4.86032 50.3362 4.71967 50.1929C4.57902 50.0497 4.5 49.8554 4.5 49.6528V5.34722Z" fill="#F3CE09"/>
<path d="M32.25 0C30.8576 0 29.5223 0.563367 28.5377 1.56617C27.5531 2.56896 27 3.92905 27 5.34722V49.6528C27 52.6044 29.352 55 32.25 55H42.75C44.1424 55 45.4777 54.4366 46.4623 53.4338C47.4469 52.431 48 51.0709 48 49.6528V5.34722C48 4.64502 47.8642 3.94968 47.6004 3.30093C47.3365 2.65217 46.9498 2.0627 46.4623 1.56617C45.9748 1.06963 45.396 0.675756 44.7591 0.407033C44.1221 0.13831 43.4394 0 42.75 0H32.25V0ZM31.5 5.34722C31.5 5.14463 31.579 4.95033 31.7197 4.80707C31.8603 4.66381 32.0511 4.58333 32.25 4.58333H42.75C42.9489 4.58333 43.1397 4.66381 43.2803 4.80707C43.421 4.95033 43.5 5.14463 43.5 5.34722V49.6528C43.5 49.8554 43.421 50.0497 43.2803 50.1929C43.1397 50.3362 42.9489 50.4167 42.75 50.4167H32.25C32.0511 50.4167 31.8603 50.3362 31.7197 50.1929C31.579 50.0497 31.5 49.8554 31.5 49.6528V5.34722V5.34722Z" fill="#F3CE09"/>
</svg>
