<svg width="48" height="55" viewBox="0 0 48 55" fill="none" xmlns="http://www.w3.org/2000/svg">
<path d="M46.4376 25.2444L4.83503 0.450618C4.34941 0.161223 3.79589 0.00579788 3.23079 0.000159091C2.6657 -0.0054797 2.10919 0.138869 1.61791 0.418516C1.12663 0.698163 0.718112 1.10313 0.43392 1.5922C0.149728 2.08127 9.27452e-06 2.63699 0 3.20282V51.7986C0.000659706 52.3594 0.148244 52.9102 0.428013 53.3959C0.707783 53.8817 1.10995 54.2855 1.59434 54.567C2.07874 54.8484 2.62841 54.9977 3.18847 55C3.74852 55.0022 4.29936 54.8573 4.78598 54.5797L46.3883 30.7779C46.8737 30.5002 47.278 30.0999 47.5607 29.6169C47.8435 29.134 47.9949 28.5852 47.9999 28.0255C48.0048 27.4657 47.8631 26.9143 47.589 26.4265C47.3148 25.9386 46.9176 25.5312 46.4372 25.2448L46.4376 25.2444ZM4.26522 49.959V5.08077L42.6847 27.9778L4.26522 49.959Z" fill="#70E72F"/>
</svg>
